# xmcd CD database file
#
# Track frame offsets:
#	150
#	14364
#	23437
#	40468
#	52270
#	63276
#	79537
#	100923
#	110762
#	134023
#	145721
#	160869
#
# Disc length: 2288 seconds
#
# Revision: 0
# Processed by: cddbd v1.4PL0 Copyright (c) Steve Scherf et al.
# Submitted via: CDex 1.50Beta7
#
DISCID=9f08ee0c
DTITLE=Toquinho e Paulinho da Viola - Ao Vivo
DYEAR=1900
DGENRE=Jazz
TTITLE0=Choro negro
TTITLE1=oracao imprudente
TTITLE2=dama de espadas
TTITLE3=desencontro
TTITLE4=duvide-o-do
TTITLE5=este olhar-corcovado-se todos fossem iguais a voce
TTITLE6=minha profissao - escravo da alegria
TTITLE7=na cancela
TTITLE8=nada de novo - q maravilha
TTITLE9=onde a dor nao tem razao
TTITLE10=tempos idos
TTITLE11=tua imagem
EXTD=
EXTT0=
EXTT1=
EXTT2=
EXTT3=
EXTT4=
EXTT5=
EXTT6=
EXTT7=
EXTT8=
EXTT9=
EXTT10=
EXTT11=
PLAYORDER=
